# xmcd CD database file
#
# Track frame offsets:
#	150
#	17207
#	29587
#
# Disc length: 619 seconds
#
# Revision: 0
# Processed by: cddbd v1.5.1PL0 Copyright (c) Steve Scherf et al.
# Submitted via: CDex 1.51
#
DISCID=1f026903
DTITLE=野川サクラ＆新谷良子 - プリンセスソフト社歌０３
DYEAR=1900
DGENRE=Game
TTITLE0=SWEET!!
TTITLE1=SWEET!!シュートバージョン
TTITLE2=SWEET!!カラオケバージョン
EXTD=
EXTT0=
EXTT1=
EXTT2=
PLAYORDER=
